<svg width="19" height="21" viewBox="0 0 19 21" fill="none" xmlns="http://www.w3.org/2000/svg">
    <path d="M7.15625 12.8438C7.15919 12.3197 7.03029 11.8033 6.78141 11.3421C6.53253 10.8809 6.17165 10.4897 5.73199 10.2045C5.29233 9.91932 4.78801 9.74926 4.26541 9.71C3.74282 9.67074 3.21874 9.76354 2.74141 9.97985C2.26407 10.1962 1.8488 10.5291 1.5338 10.9479C1.2188 11.3667 1.01419 11.8581 0.938804 12.3767C0.863414 12.8953 0.91966 13.4245 1.10237 13.9157C1.28508 14.4069 1.58838 14.8442 1.98438 15.1875C1.64819 15.4789 1.3781 15.8388 1.19217 16.2429C1.00624 16.6471 0.90876 17.0864 0.90625 17.5313V19.875C0.90625 20.0822 0.98856 20.2809 1.13507 20.4274C1.28159 20.574 1.4803 20.6563 1.6875 20.6563H3.25C3.4572 20.6563 3.65591 20.574 3.80243 20.4274C3.94894 20.2809 4.03125 20.0822 4.03125 19.875C4.03125 19.6678 3.94894 19.4691 3.80243 19.3226C3.65591 19.1761 3.4572 19.0938 3.25 19.0938H2.46875V17.5313C2.46875 17.1169 2.63337 16.7194 2.9264 16.4264C3.21942 16.1334 3.61685 15.9688 4.03125 15.9688C4.44565 15.9688 4.84308 16.1334 5.1361 16.4264C5.42913 16.7194 5.59375 17.1169 5.59375 17.5313V19.875C5.59375 20.0822 5.67606 20.2809 5.82257 20.4274C5.96909 20.574 6.1678 20.6563 6.375 20.6563C6.5822 20.6563 6.78091 20.574 6.92743 20.4274C7.07394 20.2809 7.15625 20.0822 7.15625 19.875V17.5313C7.15374 17.0864 7.05626 16.6471 6.87033 16.2429C6.6844 15.8388 6.41431 15.4789 6.07813 15.1875C6.41431 14.8961 6.6844 14.5363 6.87033 14.1321C7.05626 13.7279 7.15374 13.2887 7.15625 12.8438ZM2.46875 12.8438C2.46875 12.5347 2.56039 12.2326 2.73208 11.9757C2.90377 11.7187 3.1478 11.5185 3.43331 11.4002C3.71882 11.2819 4.03298 11.251 4.33608 11.3113C4.63917 11.3716 4.91758 11.5204 5.1361 11.7389C5.35462 11.9574 5.50344 12.2358 5.56373 12.5389C5.62402 12.842 5.59307 13.1562 5.47481 13.4417C5.35655 13.7272 5.15628 13.9712 4.89933 14.1429C4.64238 14.3146 4.34028 14.4063 4.03125 14.4063C3.61685 14.4063 3.21942 14.2416 2.9264 13.9486C2.63337 13.6556 2.46875 13.2582 2.46875 12.8438Z" fill="#8B97AE" />
    <path d="M17.0156 15.1875C17.497 14.7702 17.8393 14.2158 17.9968 13.5986C18.1542 12.9813 18.1193 12.3306 17.8966 11.7338C17.6739 11.1369 17.2742 10.6224 16.7509 10.2591C16.2276 9.89583 15.6058 9.70114 14.9688 9.70114C14.3317 9.70114 13.7099 9.89583 13.1866 10.2591C12.6633 10.6224 12.2636 11.1369 12.0409 11.7338C11.8182 12.3306 11.7833 12.9813 11.9407 13.5986C12.0982 14.2158 12.4405 14.7702 12.9219 15.1875C12.5857 15.4789 12.3156 15.8387 12.1297 16.2429C11.9437 16.6471 11.8463 17.0863 11.8438 17.5312V19.875C11.8438 20.0822 11.9261 20.2809 12.0726 20.4274C12.2191 20.5739 12.4178 20.6562 12.625 20.6562C12.8322 20.6562 13.0309 20.5739 13.1774 20.4274C13.3239 20.2809 13.4062 20.0822 13.4062 19.875V17.5312C13.4062 17.1168 13.5709 16.7194 13.8639 16.4264C14.1569 16.1334 14.5543 15.9687 14.9688 15.9687C15.3832 15.9687 15.7806 16.1334 16.0736 16.4264C16.3666 16.7194 16.5312 17.1168 16.5312 17.5312V19.0937H15.75C15.5428 19.0937 15.3441 19.176 15.1976 19.3226C15.0511 19.4691 14.9688 19.6678 14.9688 19.875C14.9688 20.0822 15.0511 20.2809 15.1976 20.4274C15.3441 20.5739 15.5428 20.6562 15.75 20.6562H17.3125C17.5197 20.6562 17.7184 20.5739 17.8649 20.4274C18.0114 20.2809 18.0938 20.0822 18.0938 19.875V17.5312C18.0912 17.0863 17.9938 16.6471 17.8078 16.2429C17.6219 15.8387 17.3518 15.4789 17.0156 15.1875ZM13.4062 12.8437C13.4062 12.5347 13.4979 12.2326 13.6696 11.9757C13.8413 11.7187 14.0853 11.5184 14.3708 11.4002C14.6563 11.2819 14.9705 11.251 15.2736 11.3113C15.5767 11.3715 15.8551 11.5204 16.0736 11.7389C16.2921 11.9574 16.4409 12.2358 16.5012 12.5389C16.5615 12.842 16.5306 13.1562 16.4123 13.4417C16.2941 13.7272 16.0938 13.9712 15.8368 14.1429C15.5799 14.3146 15.2778 14.4062 14.9688 14.4062C14.5543 14.4062 14.1569 14.2416 13.8639 13.9486C13.5709 13.6556 13.4062 13.2581 13.4062 12.8437Z" fill="#8B97AE" />
    <path d="M3.25 8.15625C3.4572 8.15625 3.65591 8.07394 3.80243 7.92743C3.94894 7.78091 4.03125 7.5822 4.03125 7.375V2.6875C4.03125 2.4803 4.11356 2.28159 4.26007 2.13507C4.40659 1.98856 4.6053 1.90625 4.8125 1.90625H12.625C12.8322 1.90625 13.0309 1.98856 13.1774 2.13507C13.3239 2.28159 13.4062 2.4803 13.4062 2.6875V4.25C13.4058 4.35336 13.3849 4.45562 13.3447 4.55083C13.3044 4.64605 13.2457 4.73233 13.1719 4.80469C13.0264 4.94902 12.83 5.03039 12.625 5.03125H6.375C6.1678 5.03125 5.96909 5.11356 5.82257 5.26007C5.67606 5.40659 5.59375 5.6053 5.59375 5.8125C5.59375 6.0197 5.67606 6.21841 5.82257 6.36493C5.96909 6.51144 6.1678 6.59375 6.375 6.59375H12.625C13.2466 6.59375 13.8427 6.34682 14.2823 5.90728C14.7218 5.46774 14.9688 4.8716 14.9688 4.25V2.6875C14.9688 2.0659 14.7218 1.46976 14.2823 1.03022C13.8427 0.59068 13.2466 0.34375 12.625 0.34375H4.8125C4.1909 0.34375 3.59476 0.59068 3.15522 1.03022C2.71568 1.46976 2.46875 2.0659 2.46875 2.6875V7.375C2.46875 7.5822 2.55106 7.78091 2.69757 7.92743C2.84409 8.07394 3.0428 8.15625 3.25 8.15625Z" fill="#8B97AE" />
</svg>
    