<svg width="21" height="21" viewBox="0 0 21 21" fill="none" xmlns="http://www.w3.org/2000/svg">
    <path d="M16.75 0.34375C15.9774 0.34375 15.2222 0.572847 14.5798 1.00207C13.9374 1.4313 13.4368 2.04137 13.1411 2.75514C12.8454 3.46892 12.7681 4.25433 12.9188 5.01207C13.0695 5.76981 13.4416 6.46584 13.9879 7.01214C14.5342 7.55843 15.2302 7.93047 15.9879 8.08119C16.7457 8.23192 17.5311 8.15456 18.2449 7.8589C18.9586 7.56325 19.5687 7.06258 19.9979 6.4202C20.4272 5.77782 20.6563 5.02258 20.6563 4.25C20.655 3.21437 20.2431 2.22151 19.5108 1.48921C18.7785 0.756912 17.7856 0.34497 16.75 0.34375ZM16.75 6.59375C16.2865 6.59375 15.8333 6.45629 15.4479 6.19876C15.0625 5.94122 14.7621 5.57518 14.5847 5.14691C14.4073 4.71865 14.3609 4.2474 14.4513 3.79276C14.5417 3.33811 14.7649 2.9205 15.0927 2.59272C15.4205 2.26494 15.8381 2.04172 16.2928 1.95128C16.7474 1.86085 17.2187 1.90726 17.6469 2.08466C18.0752 2.26205 18.4412 2.56245 18.6988 2.94788C18.9563 3.33331 19.0938 3.78645 19.0938 4.25C19.0931 4.87139 18.8459 5.46714 18.4065 5.90653C17.9671 6.34592 17.3714 6.59307 16.75 6.59375Z" fill="#8B97AE" />
    <path d="M18.3123 9.71875C18.1051 9.71875 17.9064 9.80106 17.7599 9.94757C17.6134 10.0941 17.5311 10.2928 17.5311 10.5V18.3125C17.5309 18.5196 17.4485 18.7183 17.302 18.8647C17.1556 19.0112 16.957 19.0936 16.7498 19.0938H2.68732C2.48012 19.0938 2.28141 19.0114 2.1349 18.8649C1.98838 18.7184 1.90607 18.5197 1.90607 18.3125V4.25C1.90634 4.04288 1.98874 3.84432 2.13519 3.69787C2.28165 3.55141 2.48021 3.46902 2.68732 3.46875H10.4998C10.707 3.46875 10.9057 3.38644 11.0522 3.23993C11.1988 3.09341 11.2811 2.8947 11.2811 2.6875C11.2811 2.4803 11.1988 2.28159 11.0522 2.13507C10.9057 1.98856 10.707 1.90625 10.4998 1.90625H2.68732C2.06593 1.90693 1.47019 2.15408 1.0308 2.59347C0.591407 3.03286 0.344258 3.62861 0.343575 4.25V18.3125C0.342738 18.6204 0.402997 18.9254 0.520861 19.2099C0.638725 19.4943 0.811852 19.7525 1.03022 19.9696C1.47065 20.4077 2.0661 20.6545 2.68732 20.6562H16.7498C17.3712 20.6556 17.967 20.4084 18.4063 19.969C18.8457 19.5296 19.0929 18.9339 19.0936 18.3125V10.5C19.0936 10.2928 19.0113 10.0941 18.8647 9.94757C18.7182 9.80106 18.5195 9.71875 18.3123 9.71875Z" fill="#8B97AE" />
</svg>
    