<svg width="19" height="21" viewBox="0 0 19 21" fill="none" xmlns="http://www.w3.org/2000/svg">
    <path d="M17.7422 9.85156L13.2422 6.85156C12.8536 4.48805 11.7397 2.30387 10.0547 0.601562C9.98206 0.528337 9.89565 0.470217 9.80045 0.430554C9.70525 0.390891 9.60313 0.37047 9.5 0.37047C9.39687 0.37047 9.29475 0.390891 9.19955 0.430554C9.10435 0.470217 9.01794 0.528337 8.94531 0.601562C7.26029 2.30387 6.14636 4.48805 5.75781 6.85156L1.25781 9.85156C1.15034 9.92233 1.06202 10.0186 1.00069 10.1317C0.939356 10.2448 0.906916 10.3713 0.90625 10.5V13.625C0.90625 13.8322 0.98856 14.0309 1.13507 14.1774C1.28159 14.3239 1.4803 14.4062 1.6875 14.4062H3.25C3.4572 14.4062 3.65591 14.3239 3.80243 14.1774C3.94894 14.0309 4.03125 13.8322 4.03125 13.625C4.03125 13.4178 3.94894 13.2191 3.80243 13.0726C3.65591 12.9261 3.4572 12.8437 3.25 12.8437H2.46875V10.9219L5.59375 8.83593V13.625C5.59375 13.8322 5.67606 14.0309 5.82257 14.1774C5.96909 14.3239 6.1678 14.4062 6.375 14.4062H12.625C12.8322 14.4062 13.0309 14.3239 13.1774 14.1774C13.3239 14.0309 13.4062 13.8322 13.4062 13.625V8.83593L16.5312 10.9219V12.8437H15.75C15.5428 12.8437 15.3441 12.9261 15.1976 13.0726C15.0511 13.2191 14.9688 13.4178 14.9688 13.625C14.9688 13.8322 15.0511 14.0309 15.1976 14.1774C15.3441 14.3239 15.5428 14.4062 15.75 14.4062H17.3125C17.5197 14.4062 17.7184 14.3239 17.8649 14.1774C18.0114 14.0309 18.0938 13.8322 18.0938 13.625V10.5C18.0931 10.3713 18.0606 10.2448 17.9993 10.1317C17.938 10.0186 17.8497 9.92233 17.7422 9.85156ZM11.8438 12.8437H7.15625V8.67187C7.16083 6.33218 7.9908 4.06913 9.5 2.28125C11.0092 4.06913 11.8392 6.33218 11.8438 8.67187V12.8437Z" fill="#8B97AE" />
    <path d="M12.6251 15.9687C12.4179 15.9687 12.2192 16.051 12.0726 16.1976C11.9261 16.3441 11.8438 16.5428 11.8438 16.75C11.8438 16.9572 11.9261 17.1559 12.0726 17.3024C12.2192 17.4489 12.4179 17.5312 12.6251 17.5312C13.11 17.531 13.583 17.6811 13.979 17.961C14.3749 18.2408 14.6744 18.6366 14.836 19.0937H4.16414C4.32576 18.6366 4.6252 18.2408 5.02118 17.961C5.41716 17.6811 5.89019 17.531 6.37507 17.5312C6.58227 17.5312 6.78099 17.4489 6.9275 17.3024C7.07401 17.1559 7.15632 16.9572 7.15632 16.75C7.15632 16.5428 7.07401 16.3441 6.9275 16.1976C6.78099 16.051 6.58227 15.9687 6.37507 15.9687C5.33907 15.9687 4.3455 16.3803 3.61294 17.1129C2.88037 17.8454 2.46882 18.839 2.46882 19.875C2.46823 19.9778 2.48794 20.0797 2.52682 20.1749C2.56569 20.2701 2.62298 20.3567 2.69539 20.4297C2.8451 20.5724 3.04322 20.6534 3.25007 20.6562H15.7501C15.9573 20.6562 16.156 20.5739 16.3025 20.4274C16.449 20.2809 16.5313 20.0822 16.5313 19.875C16.5313 18.839 16.1198 17.8454 15.3872 17.1129C14.6546 16.3803 13.6611 15.9687 12.6251 15.9687Z" fill="#8B97AE" />
</svg>
    