<svg width="21" height="19" viewBox="0 0 21 19" fill="none" xmlns="http://www.w3.org/2000/svg">
    <path d="M2.35938 6.82821C2.50538 6.6834 2.67853 6.56883 2.8689 6.49107C3.05927 6.41331 3.26312 6.3739 3.46875 6.37509C3.88315 6.37509 4.28058 6.53971 4.57361 6.83273C4.86663 7.12576 5.03125 7.52319 5.03125 7.93759C5.03125 8.14479 5.11356 8.3435 5.26008 8.49002C5.40659 8.63653 5.6053 8.71884 5.8125 8.71884C6.01971 8.71884 6.21842 8.63653 6.36493 8.49002C6.51145 8.3435 6.59376 8.14479 6.59376 7.93759C6.59124 7.49269 6.49377 7.05346 6.30784 6.64927C6.12191 6.24508 5.85182 5.88524 5.51563 5.59384C5.99699 5.17658 6.33933 4.62218 6.49679 4.00491C6.65425 3.38765 6.6193 2.737 6.39662 2.14015C6.17395 1.54331 5.77418 1.02877 5.25089 0.665476C4.72761 0.302186 4.10579 0.107498 3.46875 0.107498C2.83172 0.107498 2.2099 0.302186 1.68661 0.665476C1.16332 1.02877 0.763559 1.54331 0.540884 2.14015C0.318208 2.737 0.283258 3.38765 0.440715 4.00491C0.598172 4.62218 0.940516 5.17658 1.42188 5.59384C1.36719 5.64071 1.30469 5.67978 1.25781 5.72665C0.967707 6.01708 0.737663 6.36182 0.580825 6.74118C0.423987 7.12054 0.343428 7.52709 0.343751 7.93759C0.343751 8.14479 0.426061 8.3435 0.572574 8.49002C0.719087 8.63653 0.917801 8.71884 1.125 8.71884C1.3322 8.71884 1.53092 8.63653 1.67743 8.49002C1.82394 8.3435 1.90625 8.14479 1.90625 7.93759C1.90506 7.73195 1.94448 7.52811 2.02223 7.33774C2.09999 7.14736 2.21456 6.97421 2.35938 6.82821ZM3.46875 1.68759C3.77779 1.68759 4.07988 1.77923 4.33683 1.95092C4.59378 2.12261 4.79405 2.36664 4.91232 2.65215C5.03058 2.93766 5.06152 3.25182 5.00123 3.55492C4.94094 3.85801 4.79213 4.13642 4.57361 4.35494C4.35509 4.57346 4.07668 4.72228 3.77358 4.78257C3.47049 4.84285 3.15632 4.81191 2.87081 4.69365C2.5853 4.57539 2.34127 4.37512 2.16958 4.11817C1.99789 3.86122 1.90625 3.55912 1.90625 3.25009C1.90625 2.83569 2.07087 2.43826 2.3639 2.14523C2.65692 1.85221 3.05435 1.68759 3.46875 1.68759Z" fill="#8B97AE" />
    <path d="M7.375 7.93759C7.375 8.14479 7.45731 8.3435 7.60382 8.49002C7.75034 8.63653 7.94905 8.71884 8.15625 8.71884C8.36345 8.71884 8.56217 8.63653 8.70868 8.49002C8.85519 8.3435 8.9375 8.14479 8.9375 7.93759C8.9375 7.52319 9.10212 7.12576 9.39515 6.83273C9.68817 6.53971 10.0856 6.37509 10.5 6.37509C10.9144 6.37509 11.3118 6.53971 11.6049 6.83273C11.8979 7.12576 12.0625 7.52319 12.0625 7.93759C12.0625 8.14479 12.1448 8.3435 12.2913 8.49002C12.4378 8.63653 12.6366 8.71884 12.8438 8.71884C13.051 8.71884 13.2497 8.63653 13.3962 8.49002C13.5427 8.3435 13.625 8.14479 13.625 7.93759C13.6225 7.49269 13.525 7.05346 13.3391 6.64927C13.1532 6.24508 12.8831 5.88524 12.5469 5.59384C13.0282 5.17658 13.3706 4.62218 13.528 4.00491C13.6855 3.38765 13.6505 2.737 13.4279 2.14015C13.2052 1.54331 12.8054 1.02877 12.2821 0.665476C11.7589 0.302186 11.137 0.107498 10.5 0.107498C9.86297 0.107498 9.24115 0.302186 8.71786 0.665476C8.19457 1.02877 7.79481 1.54331 7.57213 2.14015C7.34946 2.737 7.31451 3.38765 7.47196 4.00491C7.62942 4.62218 7.97177 5.17658 8.45313 5.59384C8.11694 5.88524 7.84685 6.24508 7.66092 6.64927C7.47499 7.05346 7.37751 7.49269 7.375 7.93759ZM8.9375 3.25009C8.9375 2.94106 9.02914 2.63896 9.20083 2.38201C9.37252 2.12506 9.61655 1.92479 9.90206 1.80653C10.1876 1.68826 10.5017 1.65732 10.8048 1.71761C11.1079 1.7779 11.3863 1.92671 11.6049 2.14523C11.8234 2.36375 11.9722 2.64216 12.0325 2.94526C12.0928 3.24836 12.0618 3.56252 11.9436 3.84803C11.8253 4.13354 11.625 4.37757 11.3681 4.54926C11.1111 4.72095 10.809 4.81259 10.5 4.81259C10.0856 4.81259 9.68817 4.64797 9.39515 4.35494C9.10212 4.06192 8.9375 3.66449 8.9375 3.25009Z" fill="#8B97AE" />
    <path d="M19.5781 5.59384C20.0595 5.17658 20.4018 4.62218 20.5593 4.00491C20.7167 3.38765 20.6818 2.737 20.4591 2.14015C20.2364 1.54331 19.8367 1.02877 19.3134 0.665476C18.7901 0.302186 18.1683 0.107498 17.5313 0.107498C16.8942 0.107498 16.2724 0.302186 15.7491 0.665476C15.2258 1.02877 14.8261 1.54331 14.6034 2.14015C14.3807 2.737 14.3458 3.38765 14.5032 4.00491C14.6607 4.62218 15.003 5.17658 15.4844 5.59384C15.4297 5.64071 15.3672 5.67978 15.3203 5.72665C15.0302 6.01708 14.8002 6.36182 14.6433 6.74118C14.4865 7.12054 14.4059 7.52709 14.4063 7.93759C14.4063 8.14479 14.4886 8.3435 14.6351 8.49002C14.7816 8.63653 14.9803 8.71884 15.1875 8.71884C15.3947 8.71884 15.5934 8.63653 15.7399 8.49002C15.8864 8.3435 15.9688 8.14479 15.9688 7.93759C15.9688 7.52319 16.1334 7.12576 16.4264 6.83273C16.7194 6.53971 17.1169 6.37509 17.5313 6.37509C17.9457 6.37509 18.3431 6.53971 18.6361 6.83273C18.9291 7.12576 19.0938 7.52319 19.0938 7.93759C19.0938 8.14479 19.1761 8.3435 19.3226 8.49002C19.4691 8.63653 19.6678 8.71884 19.875 8.71884C20.0822 8.71884 20.2809 8.63653 20.4274 8.49002C20.5739 8.3435 20.6563 8.14479 20.6563 7.93759C20.6537 7.49269 20.5563 7.05346 20.3703 6.64927C20.1844 6.24508 19.9143 5.88524 19.5781 5.59384ZM17.5313 1.68759C17.8403 1.68759 18.1424 1.77923 18.3993 1.95092C18.6563 2.12261 18.8566 2.36664 18.9748 2.65215C19.0931 2.93766 19.124 3.25182 19.0637 3.55492C19.0034 3.85801 18.8546 4.13642 18.6361 4.35494C18.4176 4.57346 18.1392 4.72228 17.8361 4.78257C17.533 4.84285 17.2188 4.81191 16.9333 4.69365C16.6478 4.57539 16.4038 4.37512 16.2321 4.11817C16.0604 3.86122 15.9688 3.55912 15.9688 3.25009C15.9688 2.83569 16.1334 2.43826 16.4264 2.14523C16.7194 1.85221 17.1169 1.68759 17.5313 1.68759Z" fill="#8B97AE" />
    <path d="M18.3126 15.7501H6.13295L6.36732 15.5235C6.51443 15.3764 6.59708 15.1769 6.59708 14.9688C6.59708 14.7608 6.51443 14.5613 6.36732 14.4142C6.22021 14.267 6.02068 14.1844 5.81263 14.1844C5.60458 14.1844 5.40506 14.267 5.25795 14.4142L3.69545 15.9767C3.62432 16.051 3.56857 16.1386 3.53138 16.2345C3.45324 16.4247 3.45324 16.638 3.53138 16.8282C3.56857 16.9241 3.62432 17.0117 3.69545 17.086L5.25795 18.6485C5.33057 18.7218 5.41698 18.7799 5.51218 18.8195C5.60738 18.8592 5.7095 18.8796 5.81263 18.8796C5.91577 18.8796 6.01788 18.8592 6.11308 18.8195C6.20829 18.7799 6.29469 18.7218 6.36732 18.6485C6.44055 18.5759 6.49867 18.4895 6.53833 18.3943C6.57799 18.2991 6.59841 18.197 6.59841 18.0938C6.59841 17.9907 6.57799 17.8886 6.53833 17.7934C6.49867 17.6982 6.44055 17.6118 6.36732 17.5392L6.13295 17.3126H18.3126C18.5198 17.3126 18.7185 17.2303 18.8651 17.0838C19.0116 16.9373 19.0939 16.7385 19.0939 16.5313C19.0939 16.3241 19.0116 16.1254 18.8651 15.9789C18.7185 15.8324 18.5198 15.7501 18.3126 15.7501Z" fill="#8B97AE" />
    <path d="M8.38281 12.8516C8.30959 12.9242 8.25147 13.0106 8.2118 13.1058C8.17214 13.201 8.15172 13.3031 8.15172 13.4063C8.15172 13.5094 8.17214 13.6115 8.2118 13.7067C8.25147 13.8019 8.30959 13.8883 8.38281 13.9609C8.45544 14.0342 8.54185 14.0923 8.63705 14.132C8.73225 14.1716 8.83437 14.192 8.9375 14.192C9.04063 14.192 9.14275 14.1716 9.23795 14.132C9.33315 14.0923 9.41956 14.0342 9.49219 13.9609L11.0547 12.3984C11.1258 12.3241 11.1816 12.2365 11.2187 12.1406C11.2969 11.9504 11.2969 11.7371 11.2187 11.5469C11.1816 11.451 11.1258 11.3634 11.0547 11.2891L9.49219 9.72657C9.34507 9.57946 9.14555 9.49681 8.9375 9.49681C8.72945 9.49681 8.52992 9.57946 8.38281 9.72657C8.2357 9.87368 8.15305 10.0732 8.15305 10.2813C8.15305 10.4893 8.2357 10.6888 8.38281 10.8359L8.61719 11.0625H2.6875C2.4803 11.0625 2.28159 11.1448 2.13507 11.2913C1.98856 11.4378 1.90625 11.6366 1.90625 11.8438C1.90625 12.051 1.98856 12.2497 2.13507 12.3962C2.28159 12.5427 2.4803 12.625 2.6875 12.625H8.61719L8.38281 12.8516Z" fill="#8B97AE" />
</svg>
    