<svg width="23" height="22" viewBox="0 0 23 22" fill="none" xmlns="http://www.w3.org/2000/svg">
    <g clip-path="url(#clip0)">
        <path d="M21.3133 14.3172C20.7805 14.0594 20.1359 14.2871 19.8781 14.8199C19.1648 16.3023 18.0562 17.557 16.6684 18.4508C15.2461 19.366 13.5961 19.8516 11.8945 19.8516C7.01328 19.8516 3.04297 15.8813 3.04297 11C3.04297 6.11875 7.01328 2.14844 11.8945 2.14844C13.5961 2.14844 15.2461 2.63398 16.6727 3.54492C18.0605 4.43437 19.1691 5.69336 19.8824 7.17578C20.1402 7.70859 20.7805 7.93633 21.3176 7.67852C21.8504 7.4207 22.0781 6.78047 21.8203 6.24336C20.9352 4.4 19.5602 2.84023 17.8328 1.73594C16.0625 0.601563 14.0086 0 11.8945 0C8.95547 0 6.19258 1.14297 4.11719 3.22266C2.0375 5.29805 0.894531 8.06094 0.894531 11C0.894531 13.9391 2.0375 16.702 4.11719 18.7773C6.19687 20.857 8.95547 22 11.8945 22C14.0086 22 16.0625 21.3984 17.8328 20.2598C19.5559 19.1512 20.9352 17.5914 21.8203 15.7523C22.0738 15.2152 21.8504 14.575 21.3133 14.3172Z" fill="#707D96" />
        <path d="M12.466 15.1808C12.6765 15.3914 12.9515 15.4945 13.2265 15.4945C13.5015 15.4945 13.7765 15.3914 13.9871 15.1808L16.6898 12.4781C17.0851 12.0828 17.3 11.5586 17.3 11.0043C17.3 10.45 17.0808 9.92147 16.6898 9.53046L13.9871 6.82772C13.566 6.40663 12.8871 6.40663 12.466 6.82772C12.0449 7.24882 12.0449 7.92772 12.466 8.34882L14.0515 9.93436H7.94568C7.35271 9.93436 6.87146 10.4156 6.87146 11.0086C6.87146 11.6016 7.35271 12.0828 7.94568 12.0828H14.0558L12.4703 13.6683C12.0492 14.0808 12.0492 14.7598 12.466 15.1808Z" fill="#707D96" />
    </g>
    <!-- <defs>
        <clipPath id="clip0">
            <rect width="22" height="22" fill="white" transform="translate(0.894531)" />
        </clipPath>
    </defs> -->
</svg>
    