<svg width="19" height="21" viewBox="0 0 19 21" fill="none" xmlns="http://www.w3.org/2000/svg">
    <path d="M4.8125 19.0938H2.46875V5.03125H17.3125C17.5197 5.03125 17.7184 4.94894 17.8649 4.80243C18.0114 4.65591 18.0938 4.4572 18.0938 4.25C18.0938 4.0428 18.0114 3.84409 17.8649 3.69757C17.7184 3.55106 17.5197 3.46875 17.3125 3.46875H16.5312V1.125C16.5312 0.9178 16.4489 0.719086 16.3024 0.572573C16.1559 0.42606 15.9572 0.34375 15.75 0.34375H3.25C3.0428 0.34375 2.84409 0.42606 2.69757 0.572573C2.55106 0.719086 2.46875 0.9178 2.46875 1.125V3.46875H1.6875C1.4803 3.46875 1.28159 3.55106 1.13507 3.69757C0.98856 3.84409 0.90625 4.0428 0.90625 4.25V19.875C0.90625 20.0822 0.98856 20.2809 1.13507 20.4274C1.28159 20.5739 1.4803 20.6562 1.6875 20.6562H4.8125C5.0197 20.6562 5.21841 20.5739 5.36493 20.4274C5.51144 20.2809 5.59375 20.0822 5.59375 19.875C5.59375 19.6678 5.51144 19.4691 5.36493 19.3226C5.21841 19.1761 5.0197 19.0938 4.8125 19.0938ZM4.03125 1.90625H14.9688V3.46875H4.03125V1.90625Z" fill="#8B97AE" />
    <path d="M17.3125 6.59375C17.1053 6.59375 16.9066 6.67606 16.7601 6.82257C16.6136 6.96909 16.5312 7.1678 16.5312 7.375V19.0938H11.8438V15.1875C11.8438 14.9803 11.7614 14.7816 11.6149 14.6351C11.4684 14.4886 11.2697 14.4062 11.0625 14.4062H7.9375C7.7303 14.4062 7.53159 14.4886 7.38507 14.6351C7.23856 14.7816 7.15625 14.9803 7.15625 15.1875V19.875C7.15625 20.0822 7.23856 20.2809 7.38507 20.4274C7.53159 20.5739 7.7303 20.6562 7.9375 20.6562C8.1447 20.6562 8.34341 20.5739 8.48993 20.4274C8.63644 20.2809 8.71875 20.0822 8.71875 19.875V15.9688H10.2812V19.875C10.2812 20.0822 10.3636 20.2809 10.5101 20.4274C10.6566 20.5739 10.8553 20.6562 11.0625 20.6562H17.3125C17.5197 20.6562 17.7184 20.5739 17.8649 20.4274C18.0114 20.2809 18.0938 20.0822 18.0938 19.875V7.375C18.0938 7.1678 18.0114 6.96909 17.8649 6.82257C17.7184 6.67606 17.5197 6.59375 17.3125 6.59375Z" fill="#8B97AE" />
    <path d="M14.1875 6.59375H4.8125C4.6053 6.59375 4.40659 6.67606 4.26007 6.82257C4.11356 6.96909 4.03125 7.1678 4.03125 7.375C4.03125 7.5822 4.11356 7.78091 4.26007 7.92743C4.40659 8.07394 4.6053 8.15625 4.8125 8.15625H14.1875C14.3947 8.15625 14.5934 8.07394 14.7399 7.92743C14.8864 7.78091 14.9688 7.5822 14.9688 7.375C14.9688 7.1678 14.8864 6.96909 14.7399 6.82257C14.5934 6.67606 14.3947 6.59375 14.1875 6.59375Z" fill="#8B97AE" />
    <path d="M14.1875 9.71875H4.8125C4.6053 9.71875 4.40659 9.80106 4.26007 9.94757C4.11356 10.0941 4.03125 10.2928 4.03125 10.5C4.03125 10.7072 4.11356 10.9059 4.26007 11.0524C4.40659 11.1989 4.6053 11.2812 4.8125 11.2812H14.1875C14.3947 11.2812 14.5934 11.1989 14.7399 11.0524C14.8864 10.9059 14.9688 10.7072 14.9688 10.5C14.9688 10.2928 14.8864 10.0941 14.7399 9.94757C14.5934 9.80106 14.3947 9.71875 14.1875 9.71875Z" fill="#8B97AE" />
</svg>
    