<svg width="21" height="21" viewBox="0 0 21 21" fill="none" xmlns="http://www.w3.org/2000/svg">
    <path d="M13.9447 3.46874C13.9476 2.94468 13.8205 2.4283 13.5752 1.9671C13.3299 1.5059 12.9742 1.1147 12.5408 0.829496C12.1074 0.544288 11.6103 0.374231 11.0952 0.33497C10.58 0.295709 10.0635 0.388505 9.59293 0.604822C9.12242 0.821139 8.71308 1.15403 8.40258 1.57286C8.09208 1.99169 7.8904 2.48302 7.81609 3.00164C7.74177 3.52025 7.79722 4.0495 7.97731 4.54068C8.15741 5.03187 8.45638 5.46921 8.84672 5.81249C8.51533 6.10389 8.2491 6.46372 8.06583 6.86791C7.88256 7.27211 7.78647 7.71134 7.784 8.15624C7.784 8.36344 7.86513 8.56215 8.00955 8.70866C8.15397 8.85518 8.34985 8.93749 8.55409 8.93749C8.75833 8.93749 8.9542 8.85518 9.09862 8.70866C9.24304 8.56215 9.32417 8.36344 9.32417 8.15624C9.32417 7.74183 9.48644 7.34441 9.77528 7.05138C10.0641 6.75836 10.4559 6.59374 10.8644 6.59374C11.2728 6.59374 11.6646 6.75836 11.9534 7.05138C12.2423 7.34441 12.4045 7.74183 12.4045 8.15624C12.4045 8.36344 12.4857 8.56215 12.6301 8.70866C12.7745 8.85518 12.9704 8.93749 13.1746 8.93749C13.3789 8.93749 13.5747 8.85518 13.7192 8.70866C13.8636 8.56215 13.9447 8.36344 13.9447 8.15624C13.9422 7.71134 13.8461 7.27211 13.6629 6.86791C13.4796 6.46372 13.2134 6.10389 12.882 5.81249C13.2134 5.52108 13.4796 5.16125 13.6629 4.75706C13.8461 4.35287 13.9422 3.91363 13.9447 3.46874ZM9.32417 3.46874C9.32417 3.1597 9.4145 2.85761 9.58374 2.60066C9.75298 2.34371 9.99352 2.14344 10.275 2.02517C10.5564 1.90691 10.8661 1.87597 11.1648 1.93626C11.4636 1.99655 11.738 2.14536 11.9534 2.36388C12.1688 2.5824 12.3155 2.86081 12.3749 3.16391C12.4344 3.467 12.4039 3.78117 12.2873 4.06668C12.1707 4.35219 11.9733 4.59622 11.72 4.76791C11.4667 4.9396 11.169 5.03124 10.8644 5.03124C10.4559 5.03124 10.0641 4.86662 9.77528 4.57359C9.48644 4.28056 9.32417 3.88314 9.32417 3.46874Z" fill="#8B97AE" />
    <path d="M7.01386 15.1875C7.01677 14.6634 6.88971 14.147 6.64438 13.6858C6.39905 13.2246 6.04333 12.8334 5.60995 12.5482C5.17657 12.263 4.67945 12.093 4.16432 12.0537C3.6492 12.0144 3.13261 12.1072 2.66209 12.3236C2.19157 12.5399 1.78223 12.8728 1.47173 13.2916C1.16124 13.7104 0.959552 14.2018 0.885239 14.7204C0.810926 15.239 0.866369 15.7682 1.04647 16.2594C1.22657 16.7506 1.52554 17.1879 1.91587 17.5312L1.75415 17.664C1.46819 17.9545 1.24143 18.2992 1.08684 18.6786C0.93224 19.0579 0.852832 19.4645 0.85315 19.875C0.85315 20.0822 0.934285 20.2809 1.0787 20.4274C1.22312 20.5739 1.419 20.6562 1.62324 20.6562C1.82748 20.6562 2.02336 20.5739 2.16777 20.4274C2.31219 20.2809 2.39333 20.0822 2.39333 19.875C2.39333 19.4606 2.5556 19.0631 2.84444 18.7701C3.13328 18.4771 3.52503 18.3125 3.93351 18.3125C4.34199 18.3125 4.73374 18.4771 5.02258 18.7701C5.31142 19.0631 5.47369 19.4606 5.47369 19.875C5.47369 20.0822 5.55482 20.2809 5.69924 20.4274C5.84366 20.5739 6.03954 20.6562 6.24378 20.6562C6.44802 20.6562 6.64389 20.5739 6.78831 20.4274C6.93273 20.2809 7.01386 20.0822 7.01386 19.875C7.01139 19.4301 6.9153 18.9908 6.73203 18.5866C6.54876 18.1825 6.28253 17.8226 5.95114 17.5312C6.28253 17.2398 6.54876 16.88 6.73203 16.4758C6.9153 16.0716 7.01139 15.6324 7.01386 15.1875ZM3.93351 13.625C4.23813 13.625 4.5359 13.7166 4.78919 13.8883C5.04247 14.06 5.23987 14.304 5.35645 14.5895C5.47302 14.875 5.50352 15.1892 5.44409 15.4923C5.38466 15.7954 5.23798 16.0738 5.02258 16.2923C4.80718 16.5108 4.53275 16.6597 4.23398 16.7199C3.93522 16.7802 3.62554 16.7493 3.34411 16.631C3.06268 16.5128 2.82213 16.3125 2.6529 16.0556C2.48366 15.7986 2.39333 15.4965 2.39333 15.1875C2.39333 14.7731 2.5556 14.3756 2.84444 14.0826C3.13328 13.7896 3.52503 13.625 3.93351 13.625Z" fill="#8B97AE" />
    <path d="M19.8128 17.5313C20.2873 17.1141 20.6247 16.5597 20.7799 15.9424C20.9351 15.3252 20.9007 14.6745 20.6812 14.0777C20.4617 13.4808 20.0676 12.9663 19.5518 12.603C19.036 12.2397 18.4231 12.045 17.7951 12.045C17.1672 12.045 16.5543 12.2397 16.0385 12.603C15.5226 12.9663 15.1286 13.4808 14.9091 14.0777C14.6896 14.6745 14.6552 15.3252 14.8104 15.9424C14.9656 16.5597 15.303 17.1141 15.7775 17.5313C15.4461 17.8228 15.1799 18.1826 14.9966 18.5868C14.8133 18.991 14.7173 19.4302 14.7148 19.8751C14.7148 20.0823 14.7959 20.281 14.9403 20.4275C15.0848 20.574 15.2806 20.6563 15.4849 20.6563C15.6891 20.6563 15.885 20.574 16.0294 20.4275C16.1738 20.281 16.255 20.0823 16.255 19.8751C16.255 19.4607 16.4172 19.0633 16.7061 18.7702C16.9949 18.4772 17.3867 18.3126 17.7951 18.3126C18.2036 18.3126 18.5954 18.4772 18.8842 18.7702C19.1731 19.0633 19.3353 19.4607 19.3353 19.8751C19.3353 20.0823 19.4165 20.281 19.5609 20.4275C19.7053 20.574 19.9012 20.6563 20.1054 20.6563C20.3096 20.6563 20.5055 20.574 20.6499 20.4275C20.7944 20.281 20.8755 20.0823 20.8755 19.8751C20.873 19.4302 20.7769 18.991 20.5937 18.5868C20.4104 18.1826 20.1442 17.8228 19.8128 17.5313ZM16.255 15.1876C16.255 14.8786 16.3453 14.5765 16.5145 14.3195C16.6838 14.0626 16.9243 13.8623 17.2057 13.744C17.4872 13.6258 17.7968 13.5948 18.0956 13.6551C18.3944 13.7154 18.6688 13.8642 18.8842 14.0827C19.0996 14.3013 19.2463 14.5797 19.3057 14.8828C19.3652 15.1859 19.3347 15.5 19.2181 15.7855C19.1015 16.071 18.9041 16.3151 18.6508 16.4868C18.3975 16.6585 18.0998 16.7501 17.7951 16.7501C17.3867 16.7501 16.9949 16.5855 16.7061 16.2925C16.4172 15.9994 16.255 15.602 16.255 15.1876Z" fill="#8B97AE" />
    <path d="M12.4045 14.4062H11.6344V10.5C11.6344 10.2928 11.5533 10.0941 11.4089 9.94757C11.2645 9.80106 11.0686 9.71875 10.8643 9.71875C10.6601 9.71875 10.4642 9.80106 10.3198 9.94757C10.1754 10.0941 10.0943 10.2928 10.0943 10.5V14.4062H9.32417C9.11993 14.4062 8.92405 14.4886 8.77963 14.6351C8.63521 14.7816 8.55408 14.9803 8.55408 15.1875C8.55408 15.3947 8.63521 15.5934 8.77963 15.7399C8.92405 15.8864 9.11993 15.9688 9.32417 15.9688H12.4045C12.6088 15.9688 12.8046 15.8864 12.9491 15.7399C13.0935 15.5934 13.1746 15.3947 13.1746 15.1875C13.1746 14.9803 13.0935 14.7816 12.9491 14.6351C12.8046 14.4886 12.6088 14.4062 12.4045 14.4062Z" fill="#8B97AE" />
</svg>
    